<svg width="64" height="64" viewBox="0 0 64 64" fill="none" xmlns="http://www.w3.org/2000/svg">
  <g filter="url(#shadow)">
    <circle cx="32" cy="32" r="8" fill="#FFD84D"/>
    <path d="M32 11C36.6 11 40.3 18.4 40.3 24.1C40.3 29 36.5 31.9 32 31.9C27.5 31.9 23.7 29 23.7 24.1C23.7 18.4 27.4 11 32 11Z" fill="#FFF7D7"/>
    <path d="M49 23.1C52.98 25.4 53.53 33.64 50.68 38.58C48.22 42.85 43.52 43.7 39.62 41.45C35.72 39.2 34.88 34.5 37.34 30.23C40.19 25.29 45.02 20.8 49 23.1Z" fill="#FFF4BF"/>
    <path d="M44.7 46C42.07 49.9 33.92 51.16 28.89 48.7C24.55 46.58 23.3 41.97 25.88 38.12C28.46 34.27 33.1 33.34 37.45 35.47C42.48 37.93 47.33 42.1 44.7 46Z" fill="#FFF8DF"/>
    <path d="M19.3 46C16.67 42.1 21.52 37.93 26.55 35.47C30.9 33.34 35.54 34.27 38.12 38.12C40.7 41.97 39.45 46.58 35.11 48.7C30.08 51.16 21.93 49.9 19.3 46Z" fill="#FFF4BF"/>
    <path d="M15 23.1C18.98 20.8 23.81 25.29 26.66 30.23C29.12 34.5 28.28 39.2 24.38 41.45C20.48 43.7 15.78 42.85 13.32 38.58C10.47 33.64 11.02 25.4 15 23.1Z" fill="#FFF8DF"/>
  </g>
  <defs>
    <filter id="shadow" x="5" y="7" width="54" height="48" filterUnits="userSpaceOnUse" color-interpolation-filters="sRGB">
      <feFlood flood-opacity="0" result="BackgroundImageFix"/>
      <feColorMatrix in="SourceAlpha" type="matrix" values="0 0 0 0 0 0 0 0 0 0 0 0 0 0 0 0 0 0 127 0" result="hardAlpha"/>
      <feOffset dy="3"/>
      <feGaussianBlur stdDeviation="2.5"/>
      <feColorMatrix type="matrix" values="0 0 0 0 0.611765 0 0 0 0 0.352941 0 0 0 0 0.109804 0 0 0 0.32 0"/>
      <feBlend mode="normal" in2="BackgroundImageFix" result="effect1_dropShadow_1_2"/>
      <feBlend mode="normal" in="SourceGraphic" in2="effect1_dropShadow_1_2" result="shape"/>
    </filter>
  </defs>
</svg>
